<?xml version="1.0" standalone="no"?>
<!DOCTYPE svg PUBLIC "-//W3C//DTD SVG 20010904//EN"
 "http://www.w3.org/TR/2001/REC-SVG-20010904/DTD/svg10.dtd">
<svg version="1.0" xmlns="http://www.w3.org/2000/svg"
 width="802.000000pt" height="802.000000pt" viewBox="0 0 802.000000 802.000000"
 preserveAspectRatio="xMidYMid meet">
<metadata>
Created by potrace 1.14, written by Peter Selinger 2001-2017
</metadata>
<g transform="translate(0.000000,802.000000) scale(0.100000,-0.100000)"
fill="#000000" stroke="none">
<path d="M3746 7702 c-3 -2 -27 -5 -53 -7 -230 -13 -551 -78 -828 -166 -58
-19 -61 -19 -75 -2 -8 10 -28 28 -44 41 -75 58 -181 -2 -282 -157 -33 -51 -46
-61 -133 -104 -53 -26 -103 -52 -111 -57 -8 -5 -62 -37 -120 -71 -58 -34 -106
-66 -108 -71 -2 -4 -8 -8 -14 -8 -16 0 -215 -144 -328 -239 -30 -25 -63 -53
-74 -61 -72 -56 -399 -397 -446 -464 -8 -12 -20 -27 -27 -34 -20 -20 -163
-219 -163 -226 0 -4 -9 -16 -20 -28 -11 -12 -26 -34 -32 -50 -7 -15 -16 -28
-19 -28 -4 0 -9 -8 -13 -17 -3 -10 -15 -31 -25 -48 -24 -37 -33 -53 -100 -180
-30 -55 -58 -109 -64 -120 -6 -11 -11 -22 -12 -25 0 -7 -99 -238 -115 -270 -4
-9 -11 -31 -15 -50 -4 -19 -12 -41 -19 -49 -6 -8 -10 -15 -8 -15 2 -1 1 -8 -2
-16 -10 -31 -48 -156 -51 -170 -1 -8 -9 -35 -16 -60 -7 -25 -13 -47 -14 -50
-2 -10 -25 -115 -30 -140 -3 -14 -8 -38 -11 -55 -4 -16 -7 -37 -9 -45 -1 -8
-5 -31 -9 -50 -8 -39 -12 -68 -31 -240 -24 -220 -20 -612 9 -805 3 -16 8 -57
11 -90 4 -33 9 -62 10 -65 2 -3 6 -25 10 -50 4 -25 9 -48 11 -52 3 -4 7 -28
10 -54 2 -26 7 -51 11 -57 3 -5 7 -20 9 -31 8 -58 122 -432 153 -501 5 -11 19
-41 30 -66 12 -25 21 -48 21 -51 0 -3 19 -46 42 -95 23 -48 42 -90 43 -93 5
-20 40 -80 47 -80 5 0 7 -4 3 -9 -3 -5 2 -16 10 -25 9 -8 16 -19 16 -23 0 -24
231 -384 250 -391 5 -2 9 -8 9 -13 0 -5 7 -17 15 -26 8 -10 45 -56 82 -103 37
-47 84 -103 103 -125 54 -61 333 -337 368 -363 17 -13 51 -41 74 -63 24 -21
46 -39 50 -39 4 0 13 -6 20 -13 81 -76 366 -259 568 -364 192 -100 552 -243
674 -268 10 -3 33 -9 51 -15 31 -10 53 -16 105 -26 14 -3 41 -9 60 -14 19 -5
46 -11 60 -14 68 -13 138 -26 165 -30 17 -2 30 -5 30 -6 0 0 18 -3 40 -5 22
-2 54 -6 70 -9 79 -13 230 -20 440 -20 238 0 354 6 505 29 25 4 56 8 70 10 14
2 41 6 60 9 19 4 46 9 60 11 69 13 244 54 305 72 102 31 241 76 270 88 17 7
53 20 80 30 57 20 103 40 230 99 50 24 93 44 97 45 4 1 50 26 102 56 52 30
100 55 105 55 6 0 11 5 11 12 0 6 3 9 6 5 3 -3 15 3 27 14 11 10 27 19 34 19
7 0 13 5 13 10 0 6 4 10 10 10 13 0 157 99 270 186 96 74 107 83 214 177 81
70 244 234 297 299 24 28 54 62 66 75 12 12 34 40 50 60 15 21 31 40 34 43 11
9 169 229 169 235 0 4 11 21 25 39 14 18 25 38 25 44 0 6 4 12 8 14 11 4 102
160 102 174 0 7 4 14 9 16 17 6 171 340 213 463 11 33 25 66 31 73 5 7 7 15 4
19 -4 3 -3 11 2 17 14 18 104 339 117 416 2 14 7 36 10 50 7 28 10 48 19 104
3 21 8 48 10 60 3 12 8 41 10 66 3 25 7 61 9 80 27 219 27 583 1 815 -11 99
-25 195 -30 215 -5 18 -15 74 -20 112 -2 15 -18 82 -35 150 -18 68 -33 128
-34 133 -2 6 -5 17 -8 25 -16 42 -49 148 -54 170 -3 13 -11 38 -18 55 -8 16
-30 73 -51 125 -45 116 -67 163 -80 172 -5 4 -7 8 -3 8 4 0 -18 48 -48 108
-50 97 -80 151 -139 251 -32 53 -148 225 -162 239 -7 7 -13 17 -13 22 0 5 -8
17 -18 27 -10 10 -42 50 -72 88 -142 183 -328 374 -535 545 -109 91 -299 230
-313 230 -6 0 -12 4 -14 8 -1 4 -39 30 -83 57 -44 26 -90 54 -102 62 -13 7
-26 14 -30 14 -5 1 -19 9 -33 19 -14 10 -67 38 -118 64 -51 26 -96 54 -99 64
-4 9 -9 19 -13 22 -3 3 -22 28 -42 55 -62 85 -128 135 -181 135 -35 0 -120
-47 -111 -62 9 -14 -26 -21 -49 -10 -44 23 -327 99 -452 121 -33 6 -71 13 -85
16 -14 3 -41 8 -60 10 -19 3 -48 7 -65 10 -53 8 -118 15 -185 21 -81 8 -578
13 -584 6z"/>
</g>
</svg>
